<svg width="676" height="210" fill="none" xmlns="http://www.w3.org/2000/svg"><g clip-path="url(#a)" fill="#000"><path d="m675.601 85.683-.423-12.864H534.051c6.567-23.83 28.032-40.456 53.556-40.456 15.245 0 29.498 6.119 40.141 17.22l3.78 3.94h41.379l-16.923-20.855C639.146 11.915 614.224.008 587.598.008c-48.547 0-88.045 39.499-88.045 88.048 0 1.576.051 3.203.144 4.974l.678 12.084h1.246v.06h138.932c-7.254 22.753-28.431 38.583-52.946 38.583-14.474 0-28.219-5.593-38.692-15.745l-3.721-3.602h-42.48l18.295 21.16c16.779 19.406 41.049 30.533 66.598 30.533 48.548 0 88.045-39.498 88.045-88.047 0-.797-.025-1.585-.051-2.373ZM94.757.296v-.28H81.825v.247C37.243 3.466 1.12 40.693.025 86.157L0 210.008l32.354-25.422v-28.431c14.058 11.508 31.303 18.423 49.454 19.719v.246h6.05c.06-.009.12 0 .187 0h6.56v-.271c45.479-3.373 81.486-41.473 81.486-87.776 0-46.304-35.922-84.336-81.334-87.777Zm-6.56 143.452h-.389c-30.6-.127-55.454-25.058-55.454-55.692 0-30.635 24.88-55.583 55.352-55.693h.492c30.625.085 55.547 25.067 55.547 55.693 0 30.626-24.922 55.616-55.547 55.692ZM355.605 66.447s-.009.025-.017.033c0-.008.008-.025.017-.034Z"/><path d="M334.208 38.515C318.327 15.364 291.676.144 261.551.144c-27.786 0-53.386 12.754-70.224 34.999l-15.542 20.516h40.32l3.813-4.314c10.618-11.982 25.795-18.855 41.633-18.855 25.524 0 46.997 16.627 53.556 40.456h-70.928v32.355h70.318c-7.254 22.753-28.43 38.583-52.954 38.583-15.728 0-30.837-6.796-41.438-18.652l-3.814-4.262h-40.438l15.703 20.567c16.838 22.058 42.353 34.702 69.995 34.702 30.176 0 56.853-15.271 72.724-38.473a87.566 87.566 0 0 0 15.321-49.575 87.734 87.734 0 0 0-15.388-49.676Z"/><path d="M494.291 77.158C485.147 1.627 388.365-27.185 339.572 31.43c7.525 10.321 13.067 22.177 16.033 35.015 24.083-55.43 106.374-38.752 107.01 21.635-.636 60.362-82.834 77.073-106.976 21.703a96.09 96.09 0 0 1-15.966 35.024c56.666 66.514 164.897 18.94 154.626-67.659l-.008.009Z"/></g><defs><clipPath id="a"><path fill="#fff" d="M0 0h675.652v210H0z"/></clipPath></defs></svg>