<svg xmlns="http://www.w3.org/2000/svg" width="130" height="40" viewBox="0 0 130 40" fill="none">
  <g clip-path="url(#clip0_7_2094)">
    <path d="M129.34 16.3204L129.259 13.8702H102.377C103.628 9.33119 107.717 6.16425 112.578 6.16425C115.482 6.16425 118.197 7.32966 120.225 9.44418L120.945 10.1948H128.826L125.603 6.22236C122.396 2.26933 117.648 0.00146484 112.577 0.00146484C103.329 0.00146484 95.8059 7.52497 95.8059 16.7724C95.8059 17.0726 95.8156 17.3825 95.8333 17.7199L95.9625 20.0216H96.1998V20.0329H122.664C121.282 24.3669 117.248 27.3821 112.578 27.3821C109.821 27.3821 107.203 26.3168 105.208 24.383L104.5 23.697H96.408L99.8929 27.7275C103.089 31.4239 107.712 33.5433 112.578 33.5433C121.826 33.5433 129.349 26.0198 129.349 16.7724C129.349 16.6206 129.345 16.4705 129.34 16.3204Z" fill="#CDCDD8"/>
    <path d="M18.6999 0.0566846V0.00341797H17.4232C17.4151 0.00341797 17.407 0.00341797 17.399 0.00341797H16.2368V0.050228C7.74478 0.660373 0.863701 7.75129 0.655477 16.4111L0.650635 40.0018L6.81342 35.1594V29.7439C9.49128 31.9359 12.7761 33.2531 16.2335 33.5V33.5469H17.386C17.3973 33.5452 17.4086 33.5469 17.4215 33.5469H18.6709V33.4952C27.334 32.8528 34.1925 25.5956 34.1925 16.7759C34.1925 7.95629 27.3501 0.712025 18.6999 0.0566846ZM17.4506 27.3808H17.3764C11.5477 27.3566 6.81342 22.6078 6.81342 16.7727C6.81342 10.9376 11.5525 6.18557 17.357 6.16459H17.4506C23.2841 6.18073 28.0313 10.9392 28.0313 16.7727C28.0313 22.6062 23.2841 27.3663 17.4506 27.3808Z" fill="#CDCDD8"/>
    <path d="M68.3865 12.6562C68.3865 12.6562 68.3849 12.6611 68.3833 12.6627C68.3833 12.6611 68.3849 12.6579 68.3865 12.6562Z" fill="#CDCDD8"/>
    <path d="M64.3107 7.33617C61.2859 2.92634 56.2094 0.0273438 50.4711 0.0273438C45.1783 0.0273438 40.302 2.45662 37.0947 6.69374L34.1344 10.6016H41.8145L42.5408 9.77998C44.5634 7.49758 47.4543 6.18852 50.4711 6.18852C55.3329 6.18852 59.4231 9.35546 60.6725 13.8944H47.1621V20.0572H60.5563C59.1746 24.3912 55.1408 27.4064 50.4695 27.4064C47.4737 27.4064 44.5956 26.1118 42.5763 23.8537L41.85 23.0418H34.1473L37.1383 26.9593C40.3456 31.1609 45.2058 33.5692 50.4711 33.5692C56.2191 33.5692 61.3004 30.6605 64.3237 26.241C66.1638 23.5502 67.242 20.2961 67.242 16.7983C67.242 13.3004 66.1573 10.0302 64.3107 7.33617Z" fill="#CDCDD8"/>
    <path d="M94.8035 14.697C93.0618 0.310133 74.6267 -5.17794 65.3325 5.98706C66.7659 7.95309 67.8215 10.2113 68.3865 12.6567C72.9739 2.0986 88.6488 5.27523 88.7698 16.7776C88.6488 28.2751 72.9916 31.4582 68.3929 20.9114C67.8312 23.3568 66.782 25.6166 65.3519 27.5826C76.1456 40.252 96.7614 31.1902 94.8051 14.6953L94.8035 14.697Z" fill="#CDCDD8"/>
  </g>
  <defs>
    <clipPath id="clip0_7_2094">
      <rect width="128.699" height="40" fill="white" transform="translate(0.650635)"/>
    </clipPath>
  </defs>
</svg>